<svg version="1.1" id="Layer_1" xmlns="http://www.w3.org/2000/svg" xmlns:xlink="http://www.w3.org/1999/xlink" x="0px" y="0px"
	 width="100%" viewBox="0 0 285 85" enable-background="new 0 0 285 85" xml:space="preserve">
<path fill="#FEFEFE" opacity="1.000000" stroke="none" 
	d="
M231.000000,86.000000 
	C154.000031,86.000000 77.500053,86.000000 1.000062,86.000000 
	C1.000041,57.666706 1.000041,29.333408 1.000021,1.000084 
	C95.999931,1.000056 190.999863,1.000056 285.999817,1.000028 
	C285.999878,29.333252 285.999878,57.666504 285.999939,85.999878 
	C267.833344,86.000000 249.666672,86.000000 231.000000,86.000000 
M57.152603,65.673683 
	C59.441540,66.982132 61.730480,68.290573 64.786316,69.908691 
	C67.524612,70.218269 70.262909,70.527847 73.856987,70.968124 
	C85.928871,71.036194 93.322151,66.230949 95.524162,56.333302 
	C96.260941,53.021580 95.840652,49.452435 96.101410,45.075310 
	C96.052490,39.384628 96.003563,33.693951 96.112846,27.078728 
	C96.112846,22.190649 96.112846,17.302572 96.112846,12.447344 
	C91.368919,12.447344 87.462189,12.447344 83.434326,12.447344 
	C83.282883,13.361058 83.085251,13.991389 83.088303,14.620748 
	C83.124496,22.083305 83.190628,29.545717 83.107887,37.929531 
	C83.094437,40.554909 83.089912,43.180370 83.065948,45.805653 
	C82.974274,55.851181 80.924980,57.936764 70.303246,57.947910 
	C68.872353,56.959301 67.441467,55.970692 65.839615,54.232342 
	C65.236847,51.155319 64.634079,48.078297 64.185883,44.077564 
	C64.141739,39.048920 64.097588,34.020275 64.309219,28.214500 
	C64.309219,22.975435 64.309219,17.736368 64.309219,12.466883 
	C59.706383,12.466883 55.653648,12.466883 51.363731,12.466883 
	C51.363731,21.878424 51.363731,30.944077 51.197868,40.920101 
	C51.386562,45.309418 51.575260,49.698734 51.769791,54.880665 
	C53.444061,58.287514 55.118332,61.694363 57.152603,65.673683 
M143.045761,58.506340 
	C143.045761,58.506340 143.246536,58.961323 143.326416,59.633602 
	C145.598114,62.234428 147.869797,64.835258 150.723953,67.938858 
	C158.004379,72.010872 165.713455,71.843987 173.413910,69.782661 
	C180.452438,67.898514 185.130280,63.106869 185.936203,55.854614 
	C186.738129,48.638237 186.439148,41.299522 186.806885,33.092014 
	C186.750275,26.738804 186.693680,20.385593 186.694717,13.239200 
	C182.403503,12.745278 178.112289,12.251357 173.140625,11.679117 
	C173.409180,16.290379 173.605652,19.664127 173.651581,23.960526 
	C173.710770,30.305260 173.769943,36.649994 173.645996,43.826637 
	C173.372696,56.670273 170.321686,59.535053 158.691330,56.991905 
	C157.374954,53.994846 156.058578,50.997787 154.864471,47.071896 
	C154.785675,40.724293 154.706879,34.376686 154.821915,27.108232 
	C154.821915,22.201591 154.821915,17.294952 154.821915,12.437883 
	C150.133591,12.437883 146.214157,12.437883 141.965515,12.437883 
	C141.965515,20.823030 141.965515,28.912479 141.810822,37.928101 
	C142.171600,44.300583 142.532364,50.673061 142.875214,57.551044 
	C142.945602,57.704258 143.015976,57.857471 143.045761,58.506340 
M123.901886,68.104622 
	C123.845306,61.405754 123.788727,54.706886 123.891373,47.085159 
	C123.840355,42.058998 123.789330,37.032837 123.896851,31.109032 
	C123.896851,28.847164 123.896851,26.585299 123.896851,23.658348 
	C128.846939,23.658348 133.187363,23.658348 137.317078,23.658348 
	C137.317078,19.440626 137.317078,15.907990 137.317078,12.365541 
	C130.594650,12.365541 124.318916,12.365541 117.118050,12.166631 
	C110.446220,12.166631 103.774391,12.166631 97.238693,12.166631 
	C97.238693,16.500320 97.238693,20.026194 97.238693,24.236216 
	C102.059929,24.236216 106.477745,24.236216 110.867523,25.142075 
	C110.928726,30.761753 110.989937,36.381432 110.899475,42.923077 
	C110.952171,47.615692 111.004868,52.308311 110.901360,57.921810 
	C110.901360,61.793690 110.901360,65.665565 110.901360,69.809860 
	C115.276321,69.809860 119.153214,69.809860 123.493156,69.827293 
	C123.835808,69.649757 123.925430,69.386162 123.901886,68.104622 
M20.119524,12.151478 
	C15.600651,12.151478 11.081777,12.151478 6.645541,12.151478 
	C6.645541,16.507460 6.645541,20.033115 6.645541,24.009649 
	C9.321096,23.832378 11.584314,23.682426 14.660900,23.629654 
	C16.401287,23.805347 18.141674,23.981041 19.941603,24.162746 
	C20.102381,27.753864 20.242327,30.879725 20.197773,34.917072 
	C20.262808,39.281227 20.327843,43.645378 20.209576,48.929054 
	C20.209576,55.846748 20.209576,62.764439 20.209576,69.642799 
	C24.917776,69.642799 28.970818,69.642799 33.201290,69.642799 
	C33.201290,59.520359 33.201290,49.753666 33.529816,39.114922 
	C33.529816,34.187767 33.529816,29.260611 33.529816,23.793438 
	C38.465115,23.793438 42.545898,23.793438 46.723835,23.793438 
	C46.723835,19.669649 46.723835,16.108469 46.723835,12.382270 
	C43.924740,12.382270 41.465214,12.382270 38.085064,12.197522 
	C32.403877,12.247623 26.722689,12.297726 20.119524,12.151478 
M234.313141,59.378231 
	C234.225540,55.297855 235.240295,50.741615 233.741821,47.270267 
	C232.228455,43.764416 228.223526,41.334095 225.122864,38.246098 
	C225.187729,38.171562 225.726196,37.566292 226.250061,36.948639 
	C234.392410,27.348560 230.111099,14.548520 217.701065,12.934847 
	C210.229721,11.963348 202.528946,12.756224 194.636826,12.756224 
	C194.636826,31.702297 194.636826,50.727413 194.636826,69.969238 
	C203.021790,69.969238 211.025757,70.259140 218.997879,69.879837 
	C225.680801,69.561882 231.239151,66.799118 234.313141,59.378231 
M254.925537,47.195171 
	C260.857025,47.195171 266.788544,47.195171 272.875916,47.195171 
	C272.875916,42.795631 272.875916,39.228542 272.875916,35.014545 
	C266.567230,35.014545 260.529114,35.014545 254.530975,35.014545 
	C254.530975,30.960686 254.530975,27.565563 254.530975,23.707718 
	C261.145935,23.707718 267.401581,23.707718 273.743958,23.707718 
	C273.743958,19.671875 273.743958,16.113821 273.743958,12.499968 
	C262.706787,12.499968 251.999542,12.499968 241.247894,12.499968 
	C241.247894,31.755600 241.247894,50.652939 241.247894,69.731407 
	C252.218918,69.731407 262.933472,69.731407 273.735291,69.731407 
	C273.735291,65.902977 273.735291,62.356750 273.735291,58.279823 
	C267.168243,58.279823 260.926880,58.279823 254.323181,58.279823 
	C254.323181,54.467236 254.323181,51.183277 254.925537,47.195171 
z"/>
<path fill="#6D55A9" opacity="1.000000" stroke="none" 
	d="
M234.177216,59.759064 
	C231.239151,66.799118 225.680801,69.561882 218.997879,69.879837 
	C211.025757,70.259140 203.021790,69.969238 194.636826,69.969238 
	C194.636826,50.727413 194.636826,31.702297 194.636826,12.756224 
	C202.528946,12.756224 210.229721,11.963348 217.701065,12.934847 
	C230.111099,14.548520 234.392410,27.348560 226.250061,36.948639 
	C225.726196,37.566292 225.187729,38.171562 225.122864,38.246098 
	C228.223526,41.334095 232.228455,43.764416 233.741821,47.270267 
	C235.240295,50.741615 234.225540,55.297855 234.177216,59.759064 
M207.795151,58.205505 
	C210.437943,60.507675 216.824265,60.780247 219.140350,57.843994 
	C220.588318,56.008289 221.119919,52.613926 220.590881,50.248100 
	C219.772186,46.586868 214.010117,45.352310 207.752045,47.009617 
	C207.752045,50.364388 207.752045,53.818333 207.795151,58.205505 
M209.301605,22.341938 
	C208.600418,26.395639 207.899231,30.449339 207.131561,34.887356 
	C212.087891,34.679638 215.862381,34.712929 217.046295,30.157207 
	C218.224228,25.624653 216.362991,23.637247 209.301605,22.341938 
z"/>
<path fill="#6C53A8" opacity="1.000000" stroke="none" 
	d="
M254.624359,47.547245 
	C254.323181,51.183277 254.323181,54.467236 254.323181,58.279823 
	C260.926880,58.279823 267.168243,58.279823 273.735291,58.279823 
	C273.735291,62.356750 273.735291,65.902977 273.735291,69.731407 
	C262.933472,69.731407 252.218918,69.731407 241.247894,69.731407 
	C241.247894,50.652939 241.247894,31.755600 241.247894,12.499968 
	C251.999542,12.499968 262.706787,12.499968 273.743958,12.499968 
	C273.743958,16.113821 273.743958,19.671875 273.743958,23.707718 
	C267.401581,23.707718 261.145935,23.707718 254.530975,23.707718 
	C254.530975,27.565563 254.530975,30.960686 254.530975,35.014545 
	C260.529114,35.014545 266.567230,35.014545 272.875916,35.014545 
	C272.875916,39.228542 272.875916,42.795631 272.875916,47.195171 
	C266.788544,47.195171 260.857025,47.195171 254.624359,47.547245 
z"/>
<path fill="#6B52A8" opacity="1.000000" stroke="none" 
	d="
M159.197098,57.393593 
	C170.321686,59.535053 173.372696,56.670273 174.096588,43.384834 
	C176.444748,41.381676 178.282150,39.738831 180.256439,38.281437 
	C182.309692,36.765766 184.495209,35.429287 186.622894,34.014450 
	C186.439148,41.299522 186.738129,48.638237 185.936203,55.854614 
	C185.130280,63.106869 180.452438,67.898514 173.413910,69.782661 
	C165.713455,71.843987 158.004379,72.010872 150.802689,67.513580 
	C153.653320,63.856731 156.425201,60.625160 159.197098,57.393593 
z"/>
<path fill="#5F7BB5" opacity="1.000000" stroke="none" 
	d="
M111.051147,42.001110 
	C110.989937,36.381432 110.928726,30.761753 110.938751,24.323742 
	C113.354378,19.792122 115.698784,16.078833 118.043182,12.365543 
	C124.318916,12.365541 130.594650,12.365541 137.317078,12.365541 
	C137.317078,15.907990 137.317078,19.440626 137.317078,23.658348 
	C133.187363,23.658348 128.846939,23.658348 123.896851,23.658348 
	C123.896851,26.585299 123.896851,28.847164 123.466934,31.563883 
	C121.678078,33.040031 120.266396,33.999054 118.971176,35.095627 
	C116.298279,37.358612 113.687485,39.694950 111.051147,42.001110 
z"/>
<path fill="#5B82B7" opacity="1.000000" stroke="none" 
	d="
M73.001205,70.837425 
	C70.262909,70.527847 67.524612,70.218269 64.398766,69.397141 
	C64.955643,67.044342 65.758362,65.110664 66.882858,63.386883 
	C68.099297,61.522160 69.616096,59.853363 71.001892,58.099106 
	C80.924980,57.936764 82.974274,55.851181 83.065948,45.805653 
	C83.089912,43.180370 83.094437,40.554909 83.510490,37.418579 
	C86.170692,34.908478 88.331512,32.782860 90.720146,30.954926 
	C92.295395,29.749443 94.198395,28.972240 95.954643,28.003273 
	C96.003563,33.693951 96.052490,39.384628 95.659363,45.542995 
	C94.581299,46.160263 93.724831,46.096527 93.342529,46.491615 
	C88.105507,51.903866 82.788391,57.251408 77.817268,62.901920 
	C75.805054,65.189148 74.582893,68.171432 73.001205,70.837425 
z"/>
<path fill="#53A6C3" opacity="1.000000" stroke="none" 
	d="
M39.005688,12.382270 
	C41.465214,12.382270 43.924740,12.382270 46.723835,12.382270 
	C46.723835,16.108469 46.723835,19.669649 46.723835,23.793438 
	C42.545898,23.793438 38.465115,23.793438 33.529816,23.793438 
	C33.529816,29.260611 33.529816,34.187767 33.063606,39.573132 
	C31.082575,41.169910 29.629335,42.404461 28.038765,43.424965 
	C25.538761,45.028942 22.946230,46.488705 20.392876,48.009533 
	C20.327843,43.645378 20.262808,39.281227 20.637375,34.444923 
	C23.714184,31.296234 26.576218,28.802498 28.935921,25.900326 
	C32.477428,21.544664 35.666660,16.902567 39.005688,12.382270 
z"/>
<path fill="#549BBF" opacity="1.000000" stroke="none" 
	d="
M20.301228,48.469292 
	C22.946230,46.488705 25.538761,45.028942 28.038765,43.424965 
	C29.629335,42.404461 31.082575,41.169910 32.899345,40.009155 
	C33.201290,49.753666 33.201290,59.520359 33.201290,69.642799 
	C28.970818,69.642799 24.917776,69.642799 20.209576,69.642799 
	C20.209576,62.764439 20.209576,55.846748 20.301228,48.469292 
z"/>
<path fill="#5BA0C3" opacity="1.000000" stroke="none" 
	d="
M51.363731,40.009731 
	C51.363731,30.944077 51.363731,21.878424 51.363731,12.466883 
	C55.653648,12.466883 59.706383,12.466883 64.309219,12.466883 
	C64.309219,17.736368 64.309219,22.975435 63.839584,28.649494 
	C59.367878,32.726234 55.365803,36.367981 51.363731,40.009731 
z"/>
<path fill="#4FACC5" opacity="1.000000" stroke="none" 
	d="
M38.545376,12.289896 
	C35.666660,16.902567 32.477428,21.544664 28.935921,25.900326 
	C26.576218,28.802498 23.714184,31.296234 20.729626,33.989178 
	C20.242327,30.879725 20.102381,27.753864 19.941603,24.162746 
	C18.141674,23.981041 16.401287,23.805347 14.320923,23.177959 
	C14.932304,21.061090 15.779415,19.324257 16.862005,17.749287 
	C18.149525,15.876182 19.639341,14.142131 21.041502,12.347828 
	C26.722689,12.297726 32.403877,12.247623 38.545376,12.289896 
z"/>
<path fill="#5C8EBC" opacity="1.000000" stroke="none" 
	d="
M96.033745,27.541000 
	C94.198395,28.972240 92.295395,29.749443 90.720146,30.954926 
	C88.331512,32.782860 86.170692,34.908478 83.580994,36.957901 
	C83.190628,29.545717 83.124496,22.083305 83.088303,14.620748 
	C83.085251,13.991389 83.282883,13.361058 83.434326,12.447344 
	C87.462189,12.447344 91.368919,12.447344 96.112846,12.447344 
	C96.112846,17.302572 96.112846,22.190649 96.033745,27.541000 
z"/>
<path fill="#6462AD" opacity="1.000000" stroke="none" 
	d="
M142.893127,57.045547 
	C142.532364,50.673061 142.171600,44.300583 142.261963,37.458954 
	C144.010513,35.926533 145.268066,34.809547 146.613754,33.811378 
	C149.259293,31.849028 151.953827,29.952715 154.628082,28.029083 
	C154.706879,34.376686 154.785675,40.724293 154.452789,47.543133 
	C152.406464,49.252197 150.734589,50.444332 149.146378,51.739101 
	C147.027924,53.466164 144.974487,55.272984 142.893127,57.045547 
z"/>
<path fill="#5F7EB6" opacity="1.000000" stroke="none" 
	d="
M73.429092,70.902771 
	C74.582893,68.171432 75.805054,65.189148 77.817268,62.901920 
	C82.788391,57.251408 88.105507,51.903866 93.342529,46.491615 
	C93.724831,46.096527 94.581299,46.160263 95.583298,46.005821 
	C95.840652,49.452435 96.260941,53.021580 95.524162,56.333302 
	C93.322151,66.230949 85.928871,71.036194 73.429092,70.902771 
z"/>
<path fill="#6671B3" opacity="1.000000" stroke="none" 
	d="
M154.725006,27.568657 
	C151.953827,29.952715 149.259293,31.849028 146.613754,33.811378 
	C145.268066,34.809547 144.010513,35.926533 142.339325,36.995865 
	C141.965515,28.912479 141.965515,20.823030 141.965515,12.437883 
	C146.214157,12.437883 150.133591,12.437883 154.821915,12.437883 
	C154.821915,17.294952 154.821915,22.201591 154.725006,27.568657 
z"/>
<path fill="#695AAA" opacity="1.000000" stroke="none" 
	d="
M186.714890,33.553230 
	C184.495209,35.429287 182.309692,36.765766 180.256439,38.281437 
	C178.282150,39.738831 176.444748,41.381676 174.188171,42.968880 
	C173.769943,36.649994 173.710770,30.305260 174.109726,23.483503 
	C175.824066,22.134779 177.109406,21.301853 178.330536,20.383524 
	C181.116104,18.288706 183.870209,16.152046 186.637085,14.032384 
	C186.693680,20.385593 186.750275,26.738804 186.714890,33.553230 
z"/>
<path fill="#616BB0" opacity="1.000000" stroke="none" 
	d="
M123.030113,69.809860 
	C119.153214,69.809860 115.276321,69.809860 110.901360,69.809860 
	C110.901360,65.665565 110.901360,61.793690 111.319733,57.424419 
	C113.372551,55.570896 114.947990,54.134575 116.655853,52.878262 
	C118.961296,51.182362 121.368576,49.624893 123.732147,48.008018 
	C123.788727,54.706886 123.845306,61.405754 123.672409,68.659882 
	C123.247398,69.373177 123.109795,69.571411 123.030113,69.809860 
z"/>
<path fill="#668DBD" opacity="1.000000" stroke="none" 
	d="
M117.580620,12.266088 
	C115.698784,16.078833 113.354378,19.792122 110.952774,23.870813 
	C106.477745,24.236216 102.059929,24.236216 97.238693,24.236216 
	C97.238693,20.026194 97.238693,16.500320 97.238693,12.166631 
	C103.774391,12.166631 110.446220,12.166631 117.580620,12.266088 
z"/>
<path fill="#5F73B2" opacity="1.000000" stroke="none" 
	d="
M123.811760,47.546593 
	C121.368576,49.624893 118.961296,51.182362 116.655853,52.878262 
	C114.947990,54.134575 113.372551,55.570896 111.397842,56.963978 
	C111.004868,52.308311 110.952171,47.615692 110.975311,42.462093 
	C113.687485,39.694950 116.298279,37.358612 118.971176,35.095627 
	C120.266396,33.999054 121.678078,33.040031 123.387665,32.012703 
	C123.789330,37.032837 123.840355,42.058998 123.811760,47.546593 
z"/>
<path fill="#5692BD" opacity="1.000000" stroke="none" 
	d="
M51.280800,40.464916 
	C55.365803,36.367981 59.367878,32.726234 63.711700,29.038059 
	C64.097588,34.020275 64.141739,39.048920 63.761284,44.571667 
	C61.921391,46.180267 60.511131,47.301235 59.089680,48.407825 
	C56.651455,50.305965 54.206238,52.195122 51.763954,54.088051 
	C51.575260,49.698734 51.386562,45.309418 51.280800,40.464916 
z"/>
<path fill="#695CAB" opacity="1.000000" stroke="none" 
	d="
M142.884171,57.298294 
	C144.974487,55.272984 147.027924,53.466164 149.146378,51.739101 
	C150.734589,50.444332 152.406464,49.252197 154.391632,48.007549 
	C156.058578,50.997787 157.374954,53.994846 158.944214,57.192749 
	C156.425201,60.625160 153.653320,63.856731 150.511459,67.262192 
	C147.869797,64.835258 145.598114,62.234428 143.414581,59.189205 
	C143.363937,58.500103 143.225143,58.255398 143.086365,58.010689 
	C143.015976,57.857471 142.945602,57.704258 142.884171,57.298294 
z"/>
<path fill="#5A8DBB" opacity="1.000000" stroke="none" 
	d="
M51.766872,54.484360 
	C54.206238,52.195122 56.651455,50.305965 59.089680,48.407825 
	C60.511131,47.301235 61.921391,46.180267 63.683994,45.033524 
	C64.634079,48.078297 65.236847,51.155319 65.779953,54.908806 
	C62.744392,58.757252 59.768497,61.929234 56.792603,65.101212 
	C55.118332,61.694363 53.444061,58.287514 51.766872,54.484360 
z"/>
<path fill="#5DB9CC" opacity="1.000000" stroke="none" 
	d="
M20.580513,12.249653 
	C19.639341,14.142131 18.149525,15.876182 16.862005,17.749287 
	C15.779415,19.324257 14.932304,21.061090 13.914239,23.129370 
	C11.584314,23.682426 9.321096,23.832378 6.645541,24.009649 
	C6.645541,20.033115 6.645541,16.507460 6.645541,12.151478 
	C11.081777,12.151478 15.600651,12.151478 20.580513,12.249653 
z"/>
<path fill="#7068B0" opacity="1.000000" stroke="none" 
	d="
M186.665894,13.635792 
	C183.870209,16.152046 181.116104,18.288706 178.330536,20.383524 
	C177.109406,21.301853 175.824066,22.134779 174.184998,23.022179 
	C173.605652,19.664127 173.409180,16.290379 173.140625,11.679117 
	C178.112289,12.251357 182.403503,12.745278 186.665894,13.635792 
z"/>
<path fill="#5D87B9" opacity="1.000000" stroke="none" 
	d="
M56.972603,65.387451 
	C59.768497,61.929234 62.744392,58.757252 65.865433,55.283676 
	C67.441467,55.970692 68.872353,56.959301 70.652573,58.023506 
	C69.616096,59.853363 68.099297,61.522160 66.882858,63.386883 
	C65.758362,65.110664 64.955643,67.044342 64.015320,69.242302 
	C61.730480,68.290573 59.441540,66.982132 56.972603,65.387451 
z"/>
<path fill="#6462AD" opacity="1.000000" stroke="none" 
	d="
M143.066071,58.258514 
	C143.225143,58.255398 143.363937,58.500103 143.374634,58.853065 
	C143.246536,58.961323 143.045761,58.506340 143.066071,58.258514 
z"/>
<path fill="#5F7BB5" opacity="1.000000" stroke="none" 
	d="
M123.261635,69.818573 
	C123.109795,69.571411 123.247398,69.373177 123.602470,69.125824 
	C123.925430,69.386162 123.835808,69.649757 123.261635,69.818573 
z"/>
<path fill="#FAF9FC" opacity="1.000000" stroke="none" 
	d="
M207.773590,57.738892 
	C207.752045,53.818333 207.752045,50.364388 207.752045,47.009617 
	C214.010117,45.352310 219.772186,46.586868 220.590881,50.248100 
	C221.119919,52.613926 220.588318,56.008289 219.140350,57.843994 
	C216.824265,60.780247 210.437943,60.507675 207.773590,57.738892 
z"/>
<path fill="#FAF9FC" opacity="1.000000" stroke="none" 
	d="
M209.712891,22.366619 
	C216.362991,23.637247 218.224228,25.624653 217.046295,30.157207 
	C215.862381,34.712929 212.087891,34.679638 207.131561,34.887356 
	C207.899231,30.449339 208.600418,26.395639 209.712891,22.366619 
z"/>
</svg>